solid Default
  facet normal 0.000000e+00 9.999930e-01 3.728000e-03
    outer loop
      vertex -7.898640e+00 5.953758e+00 1.667800e-02
      vertex 7.898640e+00 5.924438e+00 7.881897e+00
      vertex 7.898640e+00 5.953754e+00 1.668200e-02
    endloop
  endfacet
  facet normal 0.000000e+00 9.999930e-01 3.729000e-03
    outer loop
      vertex -7.898640e+00 5.924438e+00 7.881894e+00
      vertex 7.898640e+00 5.924438e+00 7.881897e+00
      vertex -7.898640e+00 5.953758e+00 1.667800e-02
    endloop
  endfacet
  facet normal 0.000000e+00 -9.999930e-01 -3.727000e-03
    outer loop
      vertex -7.898640e+00 9.811058e-01 0.000000e+00
      vertex 7.898640e+00 9.811058e-01 0.000000e+00
      vertex 7.898640e+00 9.517899e-01 7.865208e+00
    endloop
  endfacet
  facet normal 0.000000e+00 -9.999930e-01 -3.727000e-03
    outer loop
      vertex -7.898640e+00 9.517899e-01 7.865208e+00
      vertex -7.898640e+00 9.811058e-01 0.000000e+00
      vertex 7.898640e+00 9.517899e-01 7.865208e+00
    endloop
  endfacet
  facet normal 1.000000e+00 0.000000e+00 0.000000e+00
    outer loop
      vertex 7.898640e+00 9.517899e-01 7.865208e+00
      vertex 7.898640e+00 9.811058e-01 0.000000e+00
      vertex 7.898640e+00 5.924438e+00 7.881897e+00
    endloop
  endfacet
  facet normal 1.000000e+00 0.000000e+00 0.000000e+00
    outer loop
      vertex 7.898640e+00 5.924438e+00 7.881897e+00
      vertex 7.898640e+00 9.811058e-01 0.000000e+00
      vertex 7.898640e+00 5.953754e+00 1.668200e-02
    endloop
  endfacet
  facet normal -1.000000e+00 -0.000000e+00 0.000000e+00
    outer loop
      vertex -7.898640e+00 9.811058e-01 0.000000e+00
      vertex -7.898640e+00 9.517899e-01 7.865208e+00
      vertex -7.898640e+00 5.953758e+00 1.667800e-02
    endloop
  endfacet
  facet normal -1.000000e+00 -0.000000e+00 0.000000e+00
    outer loop
      vertex -7.898640e+00 5.953758e+00 1.667800e-02
      vertex -7.898640e+00 9.517899e-01 7.865208e+00
      vertex -7.898640e+00 5.924438e+00 7.881894e+00
    endloop
  endfacet
  facet normal -0.000000e+00 4.000000e-06 -1.000000e+00
    outer loop
      vertex 7.898640e+00 9.811058e-01 0.000000e+00
      vertex -7.898640e+00 9.811058e-01 0.000000e+00
      vertex 5.996464e+00 2.436268e+00 5.000271e-06
    endloop
  endfacet
  facet normal -0.000000e+00 4.000000e-06 -1.000000e+00
    outer loop
      vertex 5.996464e+00 2.436268e+00 5.000271e-06
      vertex -7.898640e+00 9.811058e-01 0.000000e+00
      vertex -5.996464e+00 2.436268e+00 5.000271e-06
    endloop
  endfacet
  facet normal 2.600000e-03 3.354000e-03 -9.999910e-01
    outer loop
      vertex -7.898640e+00 5.953758e+00 1.667800e-02
      vertex -5.996464e+00 4.481335e+00 1.668000e-02
      vertex -7.898640e+00 9.811058e-01 0.000000e+00
    endloop
  endfacet
  facet normal 3.239998e-04 4.589997e-03 -9.999894e-01
    outer loop
      vertex -7.898640e+00 9.811058e-01 0.000000e+00
      vertex -5.996464e+00 4.481335e+00 1.668000e-02
      vertex -5.996464e+00 2.436268e+00 5.000271e-06
    endloop
  endfacet
  facet normal 0.000000e+00 -1.000000e-06 -1.000000e+00
    outer loop
      vertex -7.898640e+00 5.953758e+00 1.667800e-02
      vertex 7.898640e+00 5.953754e+00 1.668200e-02
      vertex -5.996464e+00 4.481335e+00 1.668000e-02
    endloop
  endfacet
  facet normal 0.000000e+00 -1.000000e-06 -1.000000e+00
    outer loop
      vertex -5.996464e+00 4.481335e+00 1.668000e-02
      vertex 7.898640e+00 5.953754e+00 1.668200e-02
      vertex 5.996464e+00 4.481335e+00 1.668300e-02
    endloop
  endfacet
  facet normal -2.597000e-03 3.355000e-03 -9.999910e-01
    outer loop
      vertex 7.898640e+00 5.953754e+00 1.668200e-02
      vertex 7.898640e+00 9.811058e-01 0.000000e+00
      vertex 5.996464e+00 4.481335e+00 1.668300e-02
    endloop
  endfacet
  facet normal -1.663000e-03 3.862001e-03 -9.999911e-01
    outer loop
      vertex 5.996464e+00 4.481335e+00 1.668300e-02
      vertex 7.898640e+00 9.811058e-01 0.000000e+00
      vertex 5.996464e+00 2.436268e+00 5.000271e-06
    endloop
  endfacet
  facet normal 0.000000e+00 -2.000000e-06 1.000000e+00
    outer loop
      vertex -7.898640e+00 9.517899e-01 7.865208e+00
      vertex 7.898640e+00 9.517899e-01 7.865208e+00
      vertex -5.996464e+00 2.424232e+00 7.865211e+00
    endloop
  endfacet
  facet normal 0.000000e+00 -2.000000e-06 1.000000e+00
    outer loop
      vertex -5.996464e+00 2.424232e+00 7.865211e+00
      vertex 7.898640e+00 9.517899e-01 7.865208e+00
      vertex 5.996464e+00 2.424232e+00 7.865211e+00
    endloop
  endfacet
  facet normal -2.597000e-03 -3.356000e-03 9.999910e-01
    outer loop
      vertex 7.898640e+00 9.517899e-01 7.865208e+00
      vertex 7.898640e+00 5.924438e+00 7.881897e+00
      vertex 5.996464e+00 2.424232e+00 7.865211e+00
    endloop
  endfacet
  facet normal -1.663000e-03 -3.864001e-03 9.999911e-01
    outer loop
      vertex 5.996464e+00 2.424232e+00 7.865211e+00
      vertex 7.898640e+00 5.924438e+00 7.881897e+00
      vertex 5.996464e+00 4.469276e+00 7.881896e+00
    endloop
  endfacet
  facet normal 0.000000e+00 -3.000000e-06 1.000000e+00
    outer loop
      vertex 7.898640e+00 5.924438e+00 7.881897e+00
      vertex -7.898640e+00 5.924438e+00 7.881894e+00
      vertex 5.996464e+00 4.469276e+00 7.881896e+00
    endloop
  endfacet
  facet normal 0.000000e+00 -3.000000e-06 1.000000e+00
    outer loop
      vertex 5.996464e+00 4.469276e+00 7.881896e+00
      vertex -7.898640e+00 5.924438e+00 7.881894e+00
      vertex -5.996464e+00 4.469276e+00 7.881892e+00
    endloop
  endfacet
  facet normal 2.597000e-03 -3.356000e-03 9.999910e-01
    outer loop
      vertex -7.898640e+00 9.517899e-01 7.865208e+00
      vertex -5.996464e+00 2.424232e+00 7.865211e+00
      vertex -7.898640e+00 5.924438e+00 7.881894e+00
    endloop
  endfacet
  facet normal 3.210001e-04 -4.592002e-03 9.999894e-01
    outer loop
      vertex -7.898640e+00 5.924438e+00 7.881894e+00
      vertex -5.996464e+00 2.424232e+00 7.865211e+00
      vertex -5.996464e+00 4.469276e+00 7.881892e+00
    endloop
  endfacet
  facet normal 0.000000e+00 -9.999988e-01 -1.532000e-03
    outer loop
      vertex -5.996464e+00 4.481335e+00 1.668000e-02
      vertex 5.996464e+00 4.481335e+00 1.668300e-02
      vertex -5.996464e+00 4.469276e+00 7.881892e+00
    endloop
  endfacet
  facet normal 0.000000e+00 -9.999988e-01 -1.533000e-03
    outer loop
      vertex -5.996464e+00 4.469276e+00 7.881892e+00
      vertex 5.996464e+00 4.481335e+00 1.668300e-02
      vertex 5.996464e+00 4.469276e+00 7.881896e+00
    endloop
  endfacet
  facet normal 0.000000e+00 9.999988e-01 1.531000e-03
    outer loop
      vertex 5.996464e+00 2.436268e+00 5.000271e-06
      vertex -5.996464e+00 2.436268e+00 5.000271e-06
      vertex 5.996464e+00 2.424232e+00 7.865211e+00
    endloop
  endfacet
  facet normal 0.000000e+00 9.999988e-01 1.530000e-03
    outer loop
      vertex 5.996464e+00 2.424232e+00 7.865211e+00
      vertex -5.996464e+00 2.436268e+00 5.000271e-06
      vertex -5.996464e+00 2.424232e+00 7.865211e+00
    endloop
  endfacet
  facet normal 1.000000e+00 0.000000e+00 0.000000e+00
    outer loop
      vertex -5.996464e+00 2.436268e+00 5.000271e-06
      vertex -5.996464e+00 4.481335e+00 1.668000e-02
      vertex -5.996464e+00 2.424232e+00 7.865211e+00
    endloop
  endfacet
  facet normal 1.000000e+00 0.000000e+00 0.000000e+00
    outer loop
      vertex -5.996464e+00 2.424232e+00 7.865211e+00
      vertex -5.996464e+00 4.481335e+00 1.668000e-02
      vertex -5.996464e+00 4.469276e+00 7.881892e+00
    endloop
  endfacet
  facet normal -1.000000e+00 -0.000000e+00 0.000000e+00
    outer loop
      vertex 5.996464e+00 2.436268e+00 5.000271e-06
      vertex 5.996464e+00 2.424232e+00 7.865211e+00
      vertex 5.996464e+00 4.481335e+00 1.668300e-02
    endloop
  endfacet
  facet normal -1.000000e+00 -0.000000e+00 0.000000e+00
    outer loop
      vertex 5.996464e+00 4.481335e+00 1.668300e-02
      vertex 5.996464e+00 2.424232e+00 7.865211e+00
      vertex 5.996464e+00 4.469276e+00 7.881896e+00
    endloop
  endfacet
  facet normal 0.000000e+00 9.999930e-01 3.728000e-03
    outer loop
      vertex -7.898640e+00 -9.517937e-01 1.667800e-02
      vertex 7.898640e+00 -9.811096e-01 7.881897e+00
      vertex 7.898640e+00 -9.517937e-01 1.668200e-02
    endloop
  endfacet
  facet normal 0.000000e+00 9.999930e-01 3.729000e-03
    outer loop
      vertex -7.898640e+00 -9.811096e-01 7.881894e+00
      vertex 7.898640e+00 -9.811096e-01 7.881897e+00
      vertex -7.898640e+00 -9.517937e-01 1.667800e-02
    endloop
  endfacet
  facet normal 0.000000e+00 -9.999930e-01 -3.727000e-03
    outer loop
      vertex -7.898640e+00 -5.924442e+00 4.232725e-16
      vertex 7.898640e+00 -5.924442e+00 4.232725e-16
      vertex 7.898640e+00 -5.953758e+00 7.865208e+00
    endloop
  endfacet
  facet normal 0.000000e+00 -9.999930e-01 -3.727000e-03
    outer loop
      vertex -7.898640e+00 -5.953758e+00 7.865208e+00
      vertex -7.898640e+00 -5.924442e+00 4.232725e-16
      vertex 7.898640e+00 -5.953758e+00 7.865208e+00
    endloop
  endfacet
  facet normal 1.000000e+00 0.000000e+00 0.000000e+00
    outer loop
      vertex 7.898640e+00 -5.953758e+00 7.865208e+00
      vertex 7.898640e+00 -5.924442e+00 4.232725e-16
      vertex 7.898640e+00 -9.811096e-01 7.881897e+00
    endloop
  endfacet
  facet normal 1.000000e+00 0.000000e+00 0.000000e+00
    outer loop
      vertex 7.898640e+00 -9.811096e-01 7.881897e+00
      vertex 7.898640e+00 -5.924442e+00 4.232725e-16
      vertex 7.898640e+00 -9.517937e-01 1.668200e-02
    endloop
  endfacet
  facet normal -1.000000e+00 -0.000000e+00 0.000000e+00
    outer loop
      vertex -7.898640e+00 -5.924442e+00 4.232725e-16
      vertex -7.898640e+00 -5.953758e+00 7.865208e+00
      vertex -7.898640e+00 -9.517937e-01 1.667800e-02
    endloop
  endfacet
  facet normal -1.000000e+00 -0.000000e+00 0.000000e+00
    outer loop
      vertex -7.898640e+00 -9.517937e-01 1.667800e-02
      vertex -7.898640e+00 -5.953758e+00 7.865208e+00
      vertex -7.898640e+00 -9.811096e-01 7.881894e+00
    endloop
  endfacet
  facet normal -0.000000e+00 4.000000e-06 -1.000000e+00
    outer loop
      vertex 7.898640e+00 -5.924442e+00 4.232725e-16
      vertex -7.898640e+00 -5.924442e+00 4.232725e-16
      vertex 5.996464e+00 -4.469280e+00 5.000271e-06
    endloop
  endfacet
  facet normal -0.000000e+00 4.000000e-06 -1.000000e+00
    outer loop
      vertex 5.996464e+00 -4.469280e+00 5.000271e-06
      vertex -7.898640e+00 -5.924442e+00 4.232725e-16
      vertex -5.996464e+00 -4.469280e+00 5.000271e-06
    endloop
  endfacet
  facet normal 2.600000e-03 3.354000e-03 -9.999910e-01
    outer loop
      vertex -7.898640e+00 -9.517937e-01 1.667800e-02
      vertex -5.996464e+00 -2.424213e+00 1.668000e-02
      vertex -7.898640e+00 -5.924442e+00 4.232725e-16
    endloop
  endfacet
  facet normal 3.239998e-04 4.589997e-03 -9.999894e-01
    outer loop
      vertex -7.898640e+00 -5.924442e+00 4.232725e-16
      vertex -5.996464e+00 -2.424213e+00 1.668000e-02
      vertex -5.996464e+00 -4.469280e+00 5.000271e-06
    endloop
  endfacet
  facet normal 0.000000e+00 -1.000000e-06 -1.000000e+00
    outer loop
      vertex -7.898640e+00 -9.517937e-01 1.667800e-02
      vertex 7.898640e+00 -9.517937e-01 1.668200e-02
      vertex -5.996464e+00 -2.424213e+00 1.668000e-02
    endloop
  endfacet
  facet normal 0.000000e+00 -1.000000e-06 -1.000000e+00
    outer loop
      vertex -5.996464e+00 -2.424213e+00 1.668000e-02
      vertex 7.898640e+00 -9.517937e-01 1.668200e-02
      vertex 5.996464e+00 -2.424213e+00 1.668300e-02
    endloop
  endfacet
  facet normal -2.597000e-03 3.355000e-03 -9.999910e-01
    outer loop
      vertex 7.898640e+00 -9.517937e-01 1.668200e-02
      vertex 7.898640e+00 -5.924442e+00 4.232725e-16
      vertex 5.996464e+00 -2.424213e+00 1.668300e-02
    endloop
  endfacet
  facet normal -1.663000e-03 3.862001e-03 -9.999911e-01
    outer loop
      vertex 5.996464e+00 -2.424213e+00 1.668300e-02
      vertex 7.898640e+00 -5.924442e+00 4.232725e-16
      vertex 5.996464e+00 -4.469280e+00 5.000271e-06
    endloop
  endfacet
  facet normal 0.000000e+00 -2.000000e-06 1.000000e+00
    outer loop
      vertex -7.898640e+00 -5.953758e+00 7.865208e+00
      vertex 7.898640e+00 -5.953758e+00 7.865208e+00
      vertex -5.996464e+00 -4.481316e+00 7.865211e+00
    endloop
  endfacet
  facet normal 0.000000e+00 -2.000000e-06 1.000000e+00
    outer loop
      vertex -5.996464e+00 -4.481316e+00 7.865211e+00
      vertex 7.898640e+00 -5.953758e+00 7.865208e+00
      vertex 5.996464e+00 -4.481316e+00 7.865211e+00
    endloop
  endfacet
  facet normal -2.597000e-03 -3.356000e-03 9.999910e-01
    outer loop
      vertex 7.898640e+00 -5.953758e+00 7.865208e+00
      vertex 7.898640e+00 -9.811096e-01 7.881897e+00
      vertex 5.996464e+00 -4.481316e+00 7.865211e+00
    endloop
  endfacet
  facet normal -1.663000e-03 -3.864001e-03 9.999911e-01
    outer loop
      vertex 5.996464e+00 -4.481316e+00 7.865211e+00
      vertex 7.898640e+00 -9.811096e-01 7.881897e+00
      vertex 5.996464e+00 -2.436272e+00 7.881896e+00
    endloop
  endfacet
  facet normal 0.000000e+00 -3.000000e-06 1.000000e+00
    outer loop
      vertex 7.898640e+00 -9.811096e-01 7.881897e+00
      vertex -7.898640e+00 -9.811096e-01 7.881894e+00
      vertex 5.996464e+00 -2.436272e+00 7.881896e+00
    endloop
  endfacet
  facet normal 0.000000e+00 -3.000000e-06 1.000000e+00
    outer loop
      vertex 5.996464e+00 -2.436272e+00 7.881896e+00
      vertex -7.898640e+00 -9.811096e-01 7.881894e+00
      vertex -5.996464e+00 -2.436272e+00 7.881892e+00
    endloop
  endfacet
  facet normal 2.597000e-03 -3.356000e-03 9.999910e-01
    outer loop
      vertex -7.898640e+00 -5.953758e+00 7.865208e+00
      vertex -5.996464e+00 -4.481316e+00 7.865211e+00
      vertex -7.898640e+00 -9.811096e-01 7.881894e+00
    endloop
  endfacet
  facet normal 3.210001e-04 -4.592002e-03 9.999894e-01
    outer loop
      vertex -7.898640e+00 -9.811096e-01 7.881894e+00
      vertex -5.996464e+00 -4.481316e+00 7.865211e+00
      vertex -5.996464e+00 -2.436272e+00 7.881892e+00
    endloop
  endfacet
  facet normal 0.000000e+00 -9.999988e-01 -1.532000e-03
    outer loop
      vertex -5.996464e+00 -2.424213e+00 1.668000e-02
      vertex 5.996464e+00 -2.424213e+00 1.668300e-02
      vertex -5.996464e+00 -2.436272e+00 7.881892e+00
    endloop
  endfacet
  facet normal 0.000000e+00 -9.999988e-01 -1.533000e-03
    outer loop
      vertex -5.996464e+00 -2.436272e+00 7.881892e+00
      vertex 5.996464e+00 -2.424213e+00 1.668300e-02
      vertex 5.996464e+00 -2.436272e+00 7.881896e+00
    endloop
  endfacet
  facet normal 0.000000e+00 9.999988e-01 1.531000e-03
    outer loop
      vertex 5.996464e+00 -4.469280e+00 5.000271e-06
      vertex -5.996464e+00 -4.469280e+00 5.000271e-06
      vertex 5.996464e+00 -4.481316e+00 7.865211e+00
    endloop
  endfacet
  facet normal 0.000000e+00 9.999988e-01 1.530000e-03
    outer loop
      vertex 5.996464e+00 -4.481316e+00 7.865211e+00
      vertex -5.996464e+00 -4.469280e+00 5.000271e-06
      vertex -5.996464e+00 -4.481316e+00 7.865211e+00
    endloop
  endfacet
  facet normal 1.000000e+00 0.000000e+00 0.000000e+00
    outer loop
      vertex -5.996464e+00 -4.469280e+00 5.000271e-06
      vertex -5.996464e+00 -2.424213e+00 1.668000e-02
      vertex -5.996464e+00 -4.481316e+00 7.865211e+00
    endloop
  endfacet
  facet normal 1.000000e+00 0.000000e+00 0.000000e+00
    outer loop
      vertex -5.996464e+00 -4.481316e+00 7.865211e+00
      vertex -5.996464e+00 -2.424213e+00 1.668000e-02
      vertex -5.996464e+00 -2.436272e+00 7.881892e+00
    endloop
  endfacet
  facet normal -1.000000e+00 -0.000000e+00 0.000000e+00
    outer loop
      vertex 5.996464e+00 -4.469280e+00 5.000271e-06
      vertex 5.996464e+00 -4.481316e+00 7.865211e+00
      vertex 5.996464e+00 -2.424213e+00 1.668300e-02
    endloop
  endfacet
  facet normal -1.000000e+00 -0.000000e+00 0.000000e+00
    outer loop
      vertex 5.996464e+00 -2.424213e+00 1.668300e-02
      vertex 5.996464e+00 -4.481316e+00 7.865211e+00
      vertex 5.996464e+00 -2.436272e+00 7.881896e+00
    endloop
  endfacet
endsolid Default
