# This file uses millimeters as units for non-parametric coordinates.

mtllib RubberBand Clips.mtl
g default
v 42.731815 0.013201 -58.393474
v 58.529096 7.878409 -58.364158
v 58.529096 0.013201 -58.393474
v 42.731815 7.878409 -58.364158
v 42.731815 0.029879 -63.366126
v 58.529096 7.895098 -63.336808
v 58.529096 0.029883 -63.366125
v 42.731815 7.895095 -63.336809
v 44.633993 0.013206 -59.848637
v 56.626919 0.013206 -59.848637
v 44.633993 0.029881 -61.893704
v 56.626919 0.029884 -61.893704
v 44.633993 7.878412 -59.836602
v 56.626919 7.878412 -59.836602
v 56.626919 7.895097 -61.881644
v 44.633993 7.895093 -61.881645
vt 0.625000 0.312500
vt 0.612500 0.688440
vt 0.625000 0.688440
vt 0.612500 0.312500
vt 0.625000 0.312500
vt 0.612500 0.688440
vt 0.625000 0.688440
vt 0.612500 0.312500
vt 0.612500 0.688440
vt 0.625000 0.688440
vt 0.625000 0.312500
vt 0.612500 0.312500
vt 0.625000 0.688440
vt 0.625000 0.312500
vt 0.625000 0.312500
vt 0.625000 0.688440
vt 0.612500 0.312500
vt 0.612500 0.688440
vt 0.612500 0.688440
vt 0.612500 0.312500
vn 0.000000 0.003728 -0.999993
vn 0.000000 0.003726 -0.999993
vn 0.000000 0.003725 -0.999993
vn 0.000000 0.003729 -0.999993
vn 0.000000 -0.003727 0.999993
vn 0.000000 -0.003729 0.999993
vn 0.000000 -0.003728 0.999993
vn 0.000000 -0.003727 0.999993
vn 1.000000 0.000000 -0.000000
vn 1.000000 0.000000 -0.000000
vn 1.000000 0.000000 -0.000000
vn 1.000000 0.000000 -0.000000
vn -1.000000 -0.000000 0.000000
vn -1.000000 -0.000000 0.000000
vn -1.000000 -0.000000 0.000000
vn -1.000000 -0.000000 0.000000
vn -0.000000 -1.000000 -0.000004
vn -0.000000 -1.000000 -0.000003
vn -0.000000 -1.000000 -0.000004
vn -0.000000 -1.000000 -0.000002
vn 0.002600 -0.999991 -0.003354
vn 0.001666 -0.999991 -0.003861
vn 0.000324 -0.999990 -0.004590
vn -0.006236 -0.999947 -0.008152
vn 0.000000 -1.000000 0.000001
vn 0.000000 -1.000000 0.000001
vn 0.000000 -1.000000 0.000001
vn 0.000000 -1.000000 0.000001
vn -0.002597 -0.999991 -0.003355
vn -0.000322 -0.999989 -0.004591
vn -0.001663 -0.999991 -0.003862
vn 0.006235 -0.999947 -0.008154
vn 0.000000 1.000000 0.000002
vn 0.000000 1.000000 0.000002
vn 0.000000 1.000000 0.000002
vn 0.000000 1.000000 0.000002
vn -0.002597 0.999991 0.003356
vn -0.000321 0.999989 0.004593
vn -0.001663 0.999991 0.003864
vn 0.006240 0.999947 0.008158
vn 0.000000 1.000000 0.000003
vn -0.000001 1.000000 0.000001
vn -0.000000 1.000000 0.000003
vn -0.000001 1.000000 0.000000
vn 0.002597 0.999991 0.003356
vn 0.001663 0.999991 0.003863
vn 0.000321 0.999989 0.004592
vn -0.006239 0.999947 0.008155
vn -0.000000 -0.001532 0.999999
vn -0.000000 -0.001534 0.999999
vn -0.000000 -0.001533 0.999999
vn -0.000000 -0.001535 0.999999
vn -0.000000 0.001531 -0.999999
vn -0.000000 0.001530 -0.999999
vn -0.000000 0.001530 -0.999999
vn -0.000000 0.001529 -0.999999
vn 1.000000 0.000000 -0.000000
vn 1.000000 -0.000000 0.000000
vn 1.000000 -0.000000 0.000000
vn 1.000000 -0.000000 0.000000
vn -1.000000 -0.000000 0.000000
vn -1.000000 0.000000 -0.000001
vn -1.000000 -0.000000 0.000000
vn -1.000000 0.000000 -0.000001
s 1
g polySurface132 polySurface125 polySurface124
usemtl mia_material_x2SG
f 5/11/1 6/9/2 7/10/3
f 8/12/4 6/9/2 5/11/1
s 2
f 1/5/5 3/7/6 2/6/7
f 4/8/8 1/5/5 2/6/7
s 3
f 2/2/9 3/3/10 6/9/11
f 6/9/11 3/3/10 7/10/12
s 4
f 1/1/13 4/4/14 5/11/15
f 5/11/15 4/4/14 8/12/16
s 5
f 3/3/17 1/1/18 10/13/19
f 10/13/19 1/1/18 9/14/20
s 6
f 5/11/21 11/15/22 1/1/23
f 1/1/23 11/15/22 9/14/24
s 7
f 5/11/25 7/10/26 11/15/27
f 11/15/27 7/10/26 12/16/28
s 8
f 7/10/29 3/3/30 12/16/31
f 12/16/31 3/3/30 10/13/32
s 9
f 4/4/33 2/2/34 13/17/35
f 13/17/35 2/2/34 14/18/36
s 10
f 2/2/37 6/9/38 14/18/39
f 14/18/39 6/9/38 15/19/40
s 11
f 6/9/41 8/12/42 15/19/43
f 15/19/43 8/12/42 16/20/44
s 12
f 4/4/45 13/17/46 8/12/47
f 8/12/47 13/17/46 16/20/48
s 13
f 11/15/49 12/16/50 16/20/51
f 16/20/51 12/16/50 15/19/52
s 14
f 10/13/53 9/14/54 14/18/55
f 14/18/55 9/14/54 13/17/56
s 15
f 9/14/57 11/15/58 13/17/59
f 13/17/59 11/15/58 16/20/60
s 16
f 10/13/61 14/18/62 12/16/63
f 12/16/63 14/18/62 15/19/64
g default
v 42.731815 0.013201 -51.487925
v 58.529096 7.878409 -51.458609
v 58.529096 0.013201 -51.487925
v 42.731815 7.878409 -51.458609
v 42.731815 0.029879 -56.460577
v 58.529096 7.895098 -56.431259
v 58.529096 0.029883 -56.460576
v 42.731815 7.895095 -56.431260
v 44.633993 0.013206 -52.943088
v 56.626919 0.013206 -52.943088
v 44.633993 0.029881 -54.988156
v 56.626919 0.029884 -54.988155
v 44.633993 7.878412 -52.931053
v 56.626919 7.878412 -52.931053
v 56.626919 7.895097 -54.976096
v 44.633993 7.895093 -54.976096
vt 0.625000 0.312500
vt 0.612500 0.688440
vt 0.625000 0.688440
vt 0.612500 0.312500
vt 0.625000 0.312500
vt 0.612500 0.688440
vt 0.625000 0.688440
vt 0.612500 0.312500
vt 0.612500 0.688440
vt 0.625000 0.688440
vt 0.625000 0.312500
vt 0.612500 0.312500
vt 0.625000 0.688440
vt 0.625000 0.312500
vt 0.625000 0.312500
vt 0.625000 0.688440
vt 0.612500 0.312500
vt 0.612500 0.688440
vt 0.612500 0.688440
vt 0.612500 0.312500
vn 0.000000 0.003728 -0.999993
vn 0.000000 0.003726 -0.999993
vn 0.000000 0.003725 -0.999993
vn 0.000000 0.003729 -0.999993
vn 0.000000 -0.003727 0.999993
vn 0.000000 -0.003729 0.999993
vn 0.000000 -0.003728 0.999993
vn 0.000000 -0.003727 0.999993
vn 1.000000 0.000000 -0.000000
vn 1.000000 0.000000 -0.000000
vn 1.000000 0.000000 -0.000000
vn 1.000000 0.000000 -0.000000
vn -1.000000 -0.000000 0.000000
vn -1.000000 -0.000000 0.000000
vn -1.000000 -0.000000 0.000000
vn -1.000000 -0.000000 0.000000
vn -0.000000 -1.000000 -0.000004
vn -0.000000 -1.000000 -0.000003
vn -0.000000 -1.000000 -0.000004
vn -0.000000 -1.000000 -0.000002
vn 0.002600 -0.999991 -0.003354
vn 0.001666 -0.999991 -0.003861
vn 0.000324 -0.999990 -0.004590
vn -0.006236 -0.999947 -0.008152
vn 0.000000 -1.000000 0.000001
vn 0.000000 -1.000000 0.000001
vn 0.000000 -1.000000 0.000001
vn 0.000000 -1.000000 0.000001
vn -0.002597 -0.999991 -0.003355
vn -0.000322 -0.999989 -0.004591
vn -0.001663 -0.999991 -0.003862
vn 0.006235 -0.999947 -0.008154
vn 0.000000 1.000000 0.000002
vn 0.000000 1.000000 0.000002
vn 0.000000 1.000000 0.000002
vn 0.000000 1.000000 0.000002
vn -0.002597 0.999991 0.003356
vn -0.000321 0.999989 0.004593
vn -0.001663 0.999991 0.003864
vn 0.006240 0.999947 0.008158
vn 0.000000 1.000000 0.000003
vn -0.000001 1.000000 0.000001
vn -0.000000 1.000000 0.000003
vn -0.000001 1.000000 0.000000
vn 0.002597 0.999991 0.003356
vn 0.001663 0.999991 0.003863
vn 0.000321 0.999989 0.004592
vn -0.006239 0.999947 0.008155
vn -0.000000 -0.001532 0.999999
vn -0.000000 -0.001534 0.999999
vn -0.000000 -0.001533 0.999999
vn -0.000000 -0.001535 0.999999
vn -0.000000 0.001531 -0.999999
vn -0.000000 0.001530 -0.999999
vn -0.000000 0.001530 -0.999999
vn -0.000000 0.001529 -0.999999
vn 1.000000 0.000000 -0.000000
vn 1.000000 -0.000000 0.000000
vn 1.000000 -0.000000 0.000000
vn 1.000000 -0.000000 0.000000
vn -1.000000 -0.000000 0.000000
vn -1.000000 0.000000 -0.000001
vn -1.000000 -0.000000 0.000000
vn -1.000000 0.000000 -0.000001
s 1
g polySurface125 polySurface124 polySurface133
usemtl mia_material_x2SG
f 21/31/65 22/29/66 23/30/67
f 24/32/68 22/29/66 21/31/65
s 2
f 17/25/69 19/27/70 18/26/71
f 20/28/72 17/25/69 18/26/71
s 3
f 18/22/73 19/23/74 22/29/75
f 22/29/75 19/23/74 23/30/76
s 4
f 17/21/77 20/24/78 21/31/79
f 21/31/79 20/24/78 24/32/80
s 5
f 19/23/81 17/21/82 26/33/83
f 26/33/83 17/21/82 25/34/84
s 6
f 21/31/85 27/35/86 17/21/87
f 17/21/87 27/35/86 25/34/88
s 7
f 21/31/89 23/30/90 27/35/91
f 27/35/91 23/30/90 28/36/92
s 8
f 23/30/93 19/23/94 28/36/95
f 28/36/95 19/23/94 26/33/96
s 9
f 20/24/97 18/22/98 29/37/99
f 29/37/99 18/22/98 30/38/100
s 10
f 18/22/101 22/29/102 30/38/103
f 30/38/103 22/29/102 31/39/104
s 11
f 22/29/105 24/32/106 31/39/107
f 31/39/107 24/32/106 32/40/108
s 12
f 20/24/109 29/37/110 24/32/111
f 24/32/111 29/37/110 32/40/112
s 13
f 27/35/113 28/36/114 32/40/115
f 32/40/115 28/36/114 31/39/116
s 14
f 26/33/117 25/34/118 30/38/119
f 30/38/119 25/34/118 29/37/120
s 15
f 25/34/121 27/35/122 29/37/123
f 29/37/123 27/35/122 32/40/124
s 16
f 26/33/125 30/38/126 28/36/127
f 28/36/127 30/38/126 31/39/128
