M48
;DRILL file {KiCad 4.0.4-stable} date 12/14/16 08:45:43
;FORMAT={-:-/ absolute / inch / decimal}
FMAT,2
INCH,TZ
T1C0.032
T2C0.039
T3C0.040
T4C0.091
T5C0.138
%
G90
G05
M72
T1
X4.15Y-4.29
X4.15Y-4.49
X4.2075Y-3.49
X4.2125Y-3.61
X4.32Y-3.495
X4.32Y-3.605
X4.65Y-4.29
X4.65Y-4.49
X4.95Y-4.3
X4.95Y-4.5
X5.45Y-4.3
X5.45Y-4.5
T2
X5.0025Y-3.6575
X5.299Y-3.6485
X5.78Y-3.64
X5.78Y-3.88
T3
X4.7Y-3.4
X4.7Y-4.
X4.75Y-3.8
X4.8Y-3.4
X4.8Y-4.
X4.85Y-3.8
X4.9Y-3.4
X4.9Y-4.
X4.95Y-3.8
X5.Y-3.4
X5.Y-4.
X5.05Y-3.8
X5.1Y-3.4
X5.1Y-4.
X5.15Y-3.8
X5.2Y-3.4
X5.2Y-4.
X5.25Y-3.8
X5.3Y-3.4
X5.3Y-4.
X5.4Y-3.4
X5.4Y-4.
X5.5Y-3.4
X5.5Y-4.
X5.6Y-3.4
X5.6Y-4.
X5.7Y-3.4
X5.7Y-4.
X5.8Y-3.4
X5.8Y-4.
X7.3Y-3.8
X7.3Y-3.9
X7.3Y-4.
X7.3Y-4.1
X7.3Y-4.3
X7.3Y-4.4
X7.3Y-4.5
X7.3Y-4.6
T4
X4.115Y-3.3138
X4.115Y-3.7862
T5
X5.8Y-4.5
X6.4Y-3.3
X7.3Y-3.3
T0
M30
